<?xml version="1.0" standalone="no"?><!DOCTYPE svg PUBLIC "-//W3C//DTD SVG 1.1//EN" "http://www.w3.org/Graphics/SVG/1.1/DTD/svg11.dtd"><svg t="1773373887731" class="icon" viewBox="0 0 1024 1024" version="1.1" xmlns="http://www.w3.org/2000/svg" p-id="2197" xmlns:xlink="http://www.w3.org/1999/xlink" width="256" height="256"><path d="M152.448 244.736a447.936 447.936 0 0 0 69.504 608.64l34.176 28.992 17.792-45.44 7.808-17.856c7.488-16.448 15.744-32.832 24.576-48a292.48 292.48 0 0 1 22.528-33.664l17.6-22.4-22.208-22.208a148.608 148.608 0 1 1 64.512 39.488l-25.216-7.552-12.352 23.232c-33.088 62.528-46.976 109.248-49.728 136.448l-2.24 22.4 20.352 9.664A448 448 0 1 0 162.496 231.744l-10.048 12.992z m568.064-55.168a384 384 0 0 1 126.72 509.568l-7.808 13.376a384 384 0 0 1-464 158.336l-5.376-2.24 5.44-17.472c4.48-12.992 9.984-27.008 16.832-41.984l4.48-9.472 9.024 1.408a212.608 212.608 0 1 0-140.16-344l-7.68 10.24a212.672 212.672 0 0 0-3.52 240.384l8.512 11.84-2.944 4.48a439.36 439.36 0 0 0-8.96 14.784l-9.792 17.536c-3.2 5.952-6.272 11.968-9.344 18.24l-3.52-3.712a384 384 0 0 1 492.16-581.312z" fill="#db639b" p-id="2198"></path></svg>